<?xml version="1.0" ?><svg id="Icons" viewBox="0 0 24 24" xmlns="http://www.w3.org/2000/svg" xmlns:xlink="http://www.w3.org/1999/xlink"><defs><style>.cls-1{fill:url(#linear-gradient);}.cls-2{fill:url(#linear-gradient-2);}.cls-3{fill:url(#linear-gradient-3);}</style><linearGradient gradientUnits="userSpaceOnUse" id="linear-gradient" x1="4" x2="4" y1="1.149" y2="22.235"><stop offset="0" stop-color="#f2f2f2"/><stop offset="1" stop-color="#dbdbdb"/></linearGradient><linearGradient gradientUnits="userSpaceOnUse" id="linear-gradient-2" x1="12" x2="12" y1="1.149" y2="22.235"><stop offset="0" stop-color="#ff4867"/><stop offset="1" stop-color="#e50031"/></linearGradient><linearGradient id="linear-gradient-3" x1="20" x2="20" xlink:href="#linear-gradient" y1="1.149" y2="22.235"/></defs><path class="cls-1" d="M4,8H6A0,0,0,0,1,6,8v8a0,0,0,0,1,0,0H4a2,2,0,0,1-2-2V10A2,2,0,0,1,4,8Z"/><path class="cls-2" d="M14.8,22.6,6,16V8l8.8-6.6A2,2,0,0,1,18,3V21A2,2,0,0,1,14.8,22.6Z"/><path class="cls-3" d="M18,9h1a3,3,0,0,1,3,3v0a3,3,0,0,1-3,3H18a0,0,0,0,1,0,0V9A0,0,0,0,1,18,9Z"/></svg>