<?xml version="1.0" standalone="no"?>
<!DOCTYPE svg PUBLIC "-//W3C//DTD SVG 20010904//EN"
 "http://www.w3.org/TR/2001/REC-SVG-20010904/DTD/svg10.dtd">
<svg version="1.0" xmlns="http://www.w3.org/2000/svg"
 width="640.000000pt" height="640.000000pt" viewBox="0 0 640.000000 640.000000"
 preserveAspectRatio="xMidYMid meet">
<metadata>
Created by potrace 1.14, written by Peter Selinger 2001-2017
</metadata>
<g transform="translate(0.000000,640.000000) scale(0.100000,-0.100000)"
fill="#000000" stroke="none">
<path d="M4306 6117 c-19 -19 -106 -185 -137 -262 -43 -105 -86 -227 -105
-297 -1 -5 -3 -11 -4 -15 -1 -5 -2 -11 -1 -15 0 -5 -3 -8 -7 -8 -4 0 -8 -8 -9
-18 -1 -9 -18 -76 -38 -147 -20 -72 -43 -152 -50 -180 -40 -142 -103 -344
-125 -400 -15 -39 -44 -120 -46 -130 -1 -5 -16 -55 -34 -110 -18 -55 -33 -104
-35 -110 -1 -5 -5 -17 -8 -25 -3 -8 -17 -51 -30 -95 -14 -44 -45 -143 -70
-220 -24 -77 -50 -160 -57 -185 -8 -25 -16 -49 -19 -55 -3 -5 -6 -14 -7 -20
-1 -5 -30 -98 -64 -205 -68 -213 -121 -382 -150 -475 -10 -33 -28 -89 -40
-125 -11 -36 -23 -72 -25 -80 -2 -8 -22 -73 -45 -144 -23 -71 -43 -136 -45
-145 -2 -9 -10 -34 -18 -56 -8 -22 -23 -65 -32 -95 -19 -61 -19 -62 -30 -107
-4 -18 -10 -33 -14 -33 -3 0 -35 27 -71 61 -113 107 -273 201 -420 250 -69 23
-150 40 -255 55 -42 6 -229 6 -280 0 -84 -10 -136 -18 -190 -32 -33 -9 -67
-17 -75 -19 -25 -5 -113 -36 -155 -55 -22 -10 -55 -23 -72 -30 -18 -7 -33 -16
-33 -20 0 -6 -29 -18 -48 -20 -1 0 -45 -29 -98 -65 -85 -58 -115 -82 -198
-160 -35 -33 -121 -137 -153 -185 -92 -138 -167 -329 -179 -460 -6 -62 -13
-110 -19 -140 -15 -69 -6 -284 16 -375 5 -22 12 -53 15 -69 9 -49 46 -141 97
-241 29 -58 113 -195 126 -205 3 -3 22 -25 42 -50 78 -96 203 -209 307 -277
31 -21 59 -40 62 -43 27 -27 295 -142 365 -156 36 -7 59 -12 110 -24 106 -25
362 -17 495 15 14 3 36 8 50 11 14 3 29 9 34 15 6 5 17 9 25 9 28 0 211 98
289 155 158 114 319 294 420 470 73 129 205 429 217 495 1 8 36 113 42 130 4
8 7 17 8 20 4 15 28 97 31 110 2 8 17 62 34 120 16 58 32 114 35 125 5 24 5
24 54 207 21 80 41 151 44 156 4 5 9 22 11 39 6 32 90 294 105 328 10 22 34
93 37 112 1 6 16 58 34 115 18 56 34 110 36 118 4 17 47 160 124 410 28 91 52
172 55 180 2 8 20 69 40 135 20 66 38 127 40 135 3 14 54 181 115 380 16 52
52 169 79 260 27 91 52 172 55 180 2 8 17 55 31 105 l27 89 13 -30 c16 -40
116 -313 120 -328 1 -6 5 -18 8 -26 12 -31 40 -119 62 -200 1 -3 7 -25 14 -50
14 -48 19 -70 27 -110 2 -14 7 -36 10 -50 46 -198 50 -454 8 -625 -25 -103
-93 -254 -131 -293 -7 -7 -13 -17 -13 -21 0 -17 -149 -161 -200 -193 -71 -46
-115 -95 -151 -171 -53 -114 -57 -234 -12 -359 9 -26 21 -48 25 -48 4 0 8 -6
8 -13 0 -7 19 -32 41 -55 83 -83 215 -104 341 -54 35 14 65 29 66 34 2 4 9 8
15 8 17 0 124 67 197 124 75 58 168 150 225 221 22 28 42 52 45 55 24 24 169
271 178 303 1 4 8 22 15 40 8 17 22 55 31 82 10 28 21 57 24 65 7 19 4 7 35
135 68 282 69 570 2 850 -9 39 -19 77 -23 85 -3 8 -6 18 -7 23 -2 4 -3 8 -5
10 -1 1 -3 9 -5 17 -7 33 -48 125 -120 272 -95 192 -144 286 -270 513 -86 154
-339 587 -443 759 -23 37 -42 72 -42 77 0 5 -4 9 -9 9 -5 0 -11 8 -14 18 -13
37 -148 258 -187 303 -33 39 -66 44 -94 16z"/>
</g>
</svg>
