<?xml version="1.0" encoding="iso-8859-1"?>
<!-- Generator: Adobe Illustrator 19.0.0, SVG Export Plug-In . SVG Version: 6.00 Build 0)  -->
<svg version="1.1" id="Capa_1" xmlns="http://www.w3.org/2000/svg" xmlns:xlink="http://www.w3.org/1999/xlink" x="0px" y="0px"
	 viewBox="0 0 61.5 61.5" style="enable-background:new 0 0 61.5 61.5;" xml:space="preserve">
<g>
	<path d="M45.22,35.481c-0.529-0.159-1.086,0.148-1.241,0.677c-0.896,3.041-2.561,5.841-4.815,8.097
		c-7.447,7.446-19.562,7.444-27.009,0c-7.446-7.446-7.446-19.563,0-27.009c7.445-7.446,19.562-7.446,27.009,0
		c2.488,2.489,4.237,5.604,5.057,9.009c0.129,0.537,0.673,0.866,1.207,0.738c0.537-0.13,0.867-0.67,0.738-1.207
		c-0.906-3.762-2.839-7.204-5.588-9.954c-8.228-8.227-21.611-8.227-29.837,0c-8.226,8.226-8.226,21.611,0,29.837
		c4.113,4.113,9.516,6.17,14.918,6.17c5.403,0,10.806-2.057,14.919-6.17c2.491-2.492,4.331-5.586,5.319-8.946
		C46.053,36.193,45.75,35.637,45.22,35.481z"/>
	<path d="M31.574,30.75c0-3.262-2.654-5.915-5.916-5.915s-5.915,2.653-5.915,5.915c0,3.262,2.653,5.916,5.915,5.916
		S31.574,34.012,31.574,30.75z M25.658,34.666c-2.159,0-3.915-1.757-3.915-3.916c0-2.159,1.756-3.915,3.915-3.915
		s3.916,1.756,3.916,3.915C29.574,32.909,27.817,34.666,25.658,34.666z"/>
	<path d="M27.754,40.41c0.078,0,0.156-0.009,0.235-0.027c1.767-0.426,3.385-1.333,4.677-2.625c3.863-3.864,3.863-10.15,0-14.015
		c-3.863-3.864-10.151-3.862-14.015,0c-3.863,3.864-3.863,10.15,0,14.015c1.169,1.169,2.623,2.033,4.203,2.498
		c0.533,0.16,1.086-0.148,1.241-0.677c0.156-0.529-0.146-1.086-0.677-1.241c-1.261-0.371-2.42-1.06-3.354-1.994
		c-3.083-3.084-3.083-8.102,0-11.186c3.082-3.083,8.101-3.086,11.187,0c3.083,3.084,3.083,8.102,0,11.186
		c-1.031,1.03-2.322,1.755-3.732,2.094c-0.537,0.13-0.867,0.67-0.738,1.207C26.893,40.103,27.303,40.41,27.754,40.41z"/>
	<path d="M56.762,5.5H4.739C2.126,5.5,0,7.626,0,10.239v41.022C0,53.874,2.126,56,4.739,56h52.022c2.612,0,4.738-2.126,4.738-4.738
		V10.239C61.5,7.626,59.374,5.5,56.762,5.5z M59.5,51.262c0,1.51-1.229,2.738-2.738,2.738H4.739C3.228,54,2,52.771,2,51.262V10.239
		C2,8.729,3.228,7.5,4.739,7.5h52.022c1.51,0,2.738,1.229,2.738,2.739V51.262z"/>
	<path d="M47.167,19.353h2.455l-0.667,8.487l-10.815,8.592c-0.506-0.29-1.083-0.469-1.707-0.469c-1.907,0-3.458,1.551-3.458,3.458
		c0,1.907,1.551,3.459,3.458,3.459c1.907,0,3.459-1.552,3.459-3.459c0-0.552-0.142-1.067-0.373-1.53l11.021-8.755
		c0.218-0.173,0.354-0.428,0.375-0.705l0.714-9.078h3.122c0.553,0,1-0.447,1-1v-6.5c0-0.553-0.447-1-1-1s-1,0.447-1,1v5.5h-1.965
		l0.171-2.172c0.043-0.551-0.368-1.032-0.919-1.075c-0.545-0.035-1.032,0.368-1.075,0.919l-0.183,2.328h-1.612v-4.5h3.667
		c0.553,0,1-0.447,1-1s-0.447-1-1-1h-4.667c-0.553,0-1,0.447-1,1v6.5C46.167,18.905,46.614,19.353,47.167,19.353z M36.432,40.88
		c-0.804,0-1.458-0.654-1.458-1.459c0-0.804,0.654-1.458,1.458-1.458c0.805,0,1.459,0.654,1.459,1.458
		C37.891,40.226,37.236,40.88,36.432,40.88z"/>
	<path d="M52.7,33.66c-0.548,0-1.08,0.103-1.583,0.305c-0.513,0.206-0.761,0.788-0.555,1.301c0.206,0.514,0.789,0.76,1.301,0.555
		c0.265-0.106,0.546-0.16,0.837-0.16c1.245,0,2.258,1.013,2.258,2.258c0,1.244-1.013,2.257-2.258,2.257
		c-1.244,0-2.257-1.013-2.257-2.257c0-0.2,0.025-0.398,0.076-0.587c0.144-0.533-0.174-1.082-0.707-1.225
		c-0.531-0.142-1.081,0.173-1.225,0.707c-0.096,0.357-0.144,0.729-0.144,1.104c0,2.348,1.909,4.257,4.257,4.257
		c2.348,0,4.258-1.909,4.258-4.257C56.958,35.57,55.048,33.66,52.7,33.66z"/>
	<path d="M52.7,43.588c-0.548,0-1.08,0.103-1.583,0.305c-0.513,0.206-0.761,0.788-0.555,1.301c0.206,0.513,0.789,0.758,1.301,0.555
		c0.265-0.106,0.546-0.16,0.837-0.16c1.245,0,2.258,1.013,2.258,2.258c0,1.244-1.013,2.257-2.258,2.257
		c-1.244,0-2.257-1.013-2.257-2.257c0-0.2,0.025-0.398,0.076-0.587c0.144-0.533-0.174-1.082-0.707-1.225
		c-0.531-0.142-1.081,0.173-1.225,0.707c-0.096,0.357-0.144,0.729-0.144,1.104c0,2.348,1.909,4.257,4.257,4.257
		c2.348,0,4.258-1.909,4.258-4.257C56.958,45.498,55.048,43.588,52.7,43.588z"/>
</g>
<g>
</g>
<g>
</g>
<g>
</g>
<g>
</g>
<g>
</g>
<g>
</g>
<g>
</g>
<g>
</g>
<g>
</g>
<g>
</g>
<g>
</g>
<g>
</g>
<g>
</g>
<g>
</g>
<g>
</g>
</svg>
